#!OML:ASF H:\Punching\Project 1\Capture day 1\Session 1\female.ASF
:FULLY-SPECIFIED
:DEGREES
2158
root -1.64075 14.774 10.7676 12.3214 35.9622 -0.198559
lowerback 1.14112 2.69856 3.67715
upperback -4.96525 3.77294 -0.671631
thorax -5.50936 1.70669 -2.96845
lowerneck -11.7846 -1.24199 5.62678
upperneck 36.2455 -1.40136 -3.77272
head 14.3042 -0.107424 -2.70091
rclavicle 1.23992e-014 -1.70955e-014
rhumerus 18.5065 13.7593 -95.1801
rradius 80.8231
rwrist 15.4137
rhand -43.6496 18.4834
rfingers 7.12502
rthumb -16.4839 -10.8364
lclavicle 1.23992e-014 -1.70955e-014
lhumerus 5.54494 -56.5016 90.9711
lradius 120.934
lwrist -3.56317
lhand -17.5062 8.94038
lfingers 7.12502
lthumb 8.74686 38.7391
rfemur -36.824 -16.4864 18.8767
rtibia 55.3626
rfoot -24.8077 -17.3378
rtoes -6.61014
lfemur -2.64629 -19.256 5.69094
ltibia 3.18055e-015
lfoot -12.8225 13.4716
ltoes -15.5207
2159
root -1.61146 14.7841 10.7473 12.2297 35.5124 -0.292637
lowerback 1.20407 2.56095 3.6704
upperback -4.99578 3.59197 -0.654368
thorax -5.59283 1.61462 -2.94252
lowerneck -11.7937 -1.04885 5.68418
upperneck 36.2045 -1.15896 -3.72536
head 14.3047 0.00557418 -2.65602
rclavicle 2.8948e-015 -2.24627e-014
rhumerus 18.361 13.959 -94.6194
rradius 80.7759
rwrist 15.2015
rhand -43.2846 18.0801
rfingers 7.12502
rthumb -16.1324 -11.2685
lclavicle 2.8948e-015 -2.24627e-014
lhumerus 5.41593 -55.8424 90.587
lradius 120.95
lwrist -3.61366
lhand -17.4726 8.69831
lfingers 7.12502
lthumb 8.77931 38.4957
rfemur -36.7063 -16.1793 18.758
rtibia 55.0338
rfoot -24.5488 -17.1907
rtoes -6.66921
lfemur -2.95643 -18.4555 5.48706
ltibia 1.152
lfoot -13.0811 12.8468
ltoes -15.5181
2160
root -1.57915 14.7952 10.7253 12.1456 35.0501 -0.37749
lowerback 1.25966 2.42621 3.66278
upperback -5.02956 3.41401 -0.648565
thorax -5.67456 1.52388 -2.92732
lowerneck -11.7948 -0.856253 5.75368
upperneck 36.1564 -0.918665 -3.68263
head 14.2999 0.118488 -2.61508
rclavicle -4.19622e-014 -1.13307e-014
rhumerus 18.183 14.1419 -94.0138
rradius 80.7361
rwrist 15.0225
rhand -42.9009 17.5555
rfingers 7.12502
rthumb -15.763 -11.8227
lclavicle -4.19622e-014 -1.13307e-014
lhumerus 5.25474 -55.1244 90.1855
lradius 120.983
lwrist -3.62444
lhand -17.4593 8.44533
lfingers 7.12502
lthumb 8.79211 38.2422
rfemur -36.5828 -15.8746 18.6182
rtibia 54.6796
rfoot -24.2708 -17.0278
rtoes -6.72852
lfemur -4.42983 -17.4804 5.29841
ltibia 4.59656
lfoot -14.4827 11.9522
ltoes -15.4978
2161
root -1.54388 14.8071 10.7017 12.0607 34.5782 -0.458792
lowerback 1.30644 2.30383 3.65642
upperback -5.06102 3.25162 -0.65489
thorax -5.74687 1.44083 -2.92522
lowerneck -11.7976 -0.672938 5.84276
upperneck 36.1071 -0.696487 -3.64309
head 14.2937 0.225874 -2.58151
rclavicle -5.8716e-014 -4.77083e-015
rhumerus 17.9727 14.2814 -93.3478
rradius 80.7002
rwrist 14.8513
rhand -42.5185 17.1599
rfingers 7.12502
rthumb -15.3946 -12.2469
lclavicle -5.8716e-014 -4.77083e-015
lhumerus 5.08278 -54.3724 89.7593
lradius 121.02
lwrist -3.59228
lhand -17.4102 8.27713
lfingers 7.12502
lthumb 8.83947 38.072
rfemur -36.4472 -15.5708 18.4613
rtibia 54.3012
rfoot -23.9744 -16.8546
rtoes -6.79044
lfemur -5.12424 -16.6102 5.05629
ltibia 6.51766
lfoot -15.1218 11.1942
ltoes -15.4517
2162
root -1.50576 14.8196 10.6765 11.9736 34.0942 -0.534923
lowerback 1.34833 2.20649 3.64951
upperback -5.09369 3.12154 -0.681612
thorax -5.81421 1.3735 -2.94521
lowerneck -11.792 -0.511393 5.96578
upperneck 36.0581 -0.51522 -3.60286
head 14.2831 0.320656 -2.55956
rclavicle -3.09359e-014 0
rhumerus 17.7131 14.342 -92.62
rradius 80.6813
rwrist 14.6591
rhand -42.1252 16.9618
rfingers 7.12502
rthumb -15.0158 -12.4737
lclavicle -3.09359e-014 0
lhumerus 4.90367 -53.633 89.3113
lradius 121.047
lwrist -3.54044
lhand -17.3829 8.19413
lfingers 7.12502
lthumb 8.86587 37.9879
rfemur -36.2991 -15.2623 18.2853
rtibia 53.8995
rfoot -23.6595 -16.673
rtoes -6.85963
lfemur -5.62787 -15.7598 4.7837
ltibia 8.07854
lfoot -15.5768 10.4583
ltoes -15.4397
2163
root -1.46479 14.8325 10.6497 11.8769 33.5964 -0.617411
lowerback 1.38582 2.13254 3.64879
upperback -5.12508 3.02222 -0.720483
thorax -5.87457 1.32106 -2.98253
lowerneck -11.7832 -0.369 6.10697
upperneck 36.0116 -0.369324 -3.55543
head 14.271 0.403934 -2.5431
rclavicle 3.67752e-015 -6.55989e-015
rhumerus 17.4016 14.3431 -91.8278
rradius 80.678
rwrist 14.4136
rhand -41.721 16.8799
rfingers 7.12502
rthumb -14.6264 -12.5843
lclavicle 3.67752e-015 -6.55989e-015
lhumerus 4.72844 -52.8957 88.8323
lradius 121.05
lwrist -3.48147
lhand -17.4388 8.08578
lfingers 7.12502
lthumb 8.81195 37.8818
rfemur -36.138 -14.9423 18.1003
rtibia 53.4748
rfoot -23.3262 -16.4874
rtoes -6.9342
lfemur -6.02755 -14.9136 4.49278
ltibia 9.45871
lfoot -15.9478 9.73756
ltoes -15.4785
2164
root -1.42099 14.8455 10.6212 11.7674 33.0801 -0.707568
lowerback 1.42495 2.07438 3.65401
upperback -5.15463 2.94393 -0.766735
thorax -5.93186 1.27866 -3.03193
lowerneck -11.7725 -0.237515 6.25819
upperneck 35.9687 -0.245541 -3.49781
head 14.2589 0.480637 -2.52758
rclavicle 3.16254e-014 4.07509e-015
rhumerus 17.037 14.3156 -90.9835
rradius 80.6917
rwrist 14.082
rhand -41.2684 16.7582
rfingers 7.12502
rthumb -14.1902 -12.7371
lclavicle 3.16254e-014 4.07509e-015
lhumerus 4.55472 -52.1235 88.3205
lradius 121.025
lwrist -3.38723
lhand -17.5572 7.86604
lfingers 7.12502
lthumb 8.69764 37.6669
rfemur -35.9631 -14.6035 17.906
rtibia 53.0288
rfoot -22.9751 -16.2996
rtoes -7.02162
lfemur -6.35373 -14.0633 4.18328
ltibia 10.7321
lfoot -16.2861 9.02954
ltoes -15.5594
